<svg width="24" height="24" viewBox="0 0 24 24" fill="none" xmlns="http://www.w3.org/2000/svg">
<path fill-rule="evenodd" clip-rule="evenodd" d="M8.95624 1.66664e-07H15.0438C16.4068 -7.76749e-06 17.4908 -1.40816e-05 18.3654 0.0714426C19.261 0.144616 20.0247 0.297677 20.7239 0.653961C21.8529 1.2292 22.7708 2.14709 23.346 3.27606C23.7023 3.9753 23.8554 4.73898 23.9286 5.63458C24 6.50914 24 7.59313 24 8.95613V15.0438C24 16.4068 24 17.4909 23.9286 18.3654C23.8554 19.261 23.7023 20.0247 23.346 20.7239C22.7708 21.8529 21.8529 22.7708 20.7239 23.346C20.0247 23.7023 19.261 23.8554 18.3654 23.9286C17.4909 24 16.4069 24 15.0439 24H8.95622C7.59322 24 6.50914 24 5.63458 23.9286C4.73898 23.8554 3.9753 23.7023 3.27606 23.346C2.14709 22.7708 1.2292 21.8529 0.653961 20.7239C0.297677 20.0247 0.144616 19.261 0.0714426 18.3654C-1.40816e-05 17.4908 -7.76748e-06 16.4068 1.66664e-07 15.0438V8.95624C-7.76748e-06 7.5932 -1.40816e-05 6.50917 0.0714426 5.63458C0.144616 4.73898 0.297677 3.9753 0.653961 3.27606C1.2292 2.14709 2.14709 1.2292 3.27606 0.653961C3.9753 0.297677 4.73898 0.144616 5.63458 0.0714426C6.50917 -1.40816e-05 7.5932 -7.76749e-06 8.95624 1.66664e-07ZM5.79744 2.0648C5.02552 2.12787 4.55435 2.24729 4.18404 2.43597C3.43139 2.81947 2.81947 3.43139 2.43597 4.18404C2.24729 4.55435 2.12787 5.02552 2.0648 5.79744C2.00078 6.58104 2 7.58337 2 9V15C2 16.4166 2.00078 17.419 2.0648 18.2026C2.12787 18.9745 2.24729 19.4457 2.43597 19.816C2.81947 20.5686 3.43139 21.1805 4.18404 21.564C4.55435 21.7527 5.02552 21.8721 5.79744 21.9352C6.58104 21.9992 7.58337 22 9 22H15C16.4166 22 17.419 21.9992 18.2026 21.9352C18.9745 21.8721 19.4457 21.7527 19.816 21.564C20.5686 21.1805 21.1805 20.5686 21.564 19.816C21.7527 19.4457 21.8721 18.9745 21.9352 18.2026C21.9992 17.419 22 16.4166 22 15V9C22 7.58337 21.9992 6.58104 21.9352 5.79744C21.8721 5.02552 21.7527 4.55435 21.564 4.18404C21.1805 3.43139 20.5686 2.81947 19.816 2.43597C19.4457 2.24729 18.9745 2.12787 18.2026 2.0648C17.419 2.00078 16.4166 2 15 2H9C7.58337 2 6.58104 2.00078 5.79744 2.0648Z" fill="#5E6AD2"/>
<path d="M5.5679 6.39434L5.04713 6.59152C4.95649 6.62551 4.84604 6.65596 4.7249 6.65596C4.25906 6.65596 3.8759 6.26648 3.8759 5.79796C3.8759 5.41068 4.12506 5.12438 4.44248 4.99742L4.44775 4.99531L6.19596 4.33413C6.26493 4.31114 6.36252 4.28296 6.4979 4.28296C6.95738 4.28296 7.3469 4.66609 7.3469 5.12296V9.56596H7.8209C8.28948 9.56596 8.6879 9.95819 8.6879 10.424C8.6879 10.9016 8.29563 11.3 7.8209 11.3H4.7609C4.28616 11.3 3.8939 10.9016 3.8939 10.424C3.8939 9.95819 4.29231 9.56596 4.7609 9.56596H5.5679V6.39434Z" fill="#5E6AD2"/>
<path fill-rule="evenodd" clip-rule="evenodd" d="M8.5272 18.119C8.5272 19.5789 7.24801 20.417 6.1032 20.417C4.95839 20.417 3.6792 19.5789 3.6792 18.119V15.581C3.6792 14.121 4.95839 13.283 6.1032 13.283C7.24801 13.283 8.5272 14.121 8.5272 15.581V18.119ZM5.4582 18.029V15.671C5.4582 15.2808 5.73546 15.026 6.1122 15.026C6.46716 15.026 6.7482 15.2772 6.7482 15.671V18.029C6.7482 18.3834 6.44337 18.674 6.1122 18.674C5.75218 18.674 5.4582 18.3816 5.4582 18.029Z" fill="#5E6AD2"/>
<path d="M11.4645 15.3943L10.9437 15.5915C10.8531 15.6255 10.7426 15.656 10.6215 15.656C10.1556 15.656 9.77248 15.2665 9.77248 14.798C9.77248 14.4107 10.0216 14.1244 10.3391 13.9974L10.3443 13.9953L12.0925 13.3341C12.1615 13.3111 12.2591 13.283 12.3945 13.283C12.854 13.283 13.2435 13.6661 13.2435 14.123V18.566H13.7175C14.1861 18.566 14.5845 18.9582 14.5845 19.424C14.5845 19.9016 14.1922 20.3 13.7175 20.3H10.6575C10.1827 20.3 9.79048 19.9016 9.79048 19.424C9.79048 18.9582 10.1889 18.566 10.6575 18.566H11.4645V15.3943Z" fill="#5E6AD2"/>
<path fill-rule="evenodd" clip-rule="evenodd" d="M14.4238 9.11896C14.4238 10.5789 13.1446 11.417 11.9998 11.417C10.855 11.417 9.57578 10.5789 9.57578 9.11896V6.58096C9.57578 5.121 10.855 4.28296 11.9998 4.28296C13.1446 4.28296 14.4238 5.121 14.4238 6.58096V9.11896ZM11.3548 9.02896V6.67096C11.3548 6.28084 11.632 6.02596 12.0088 6.02596C12.3637 6.02596 12.6448 6.27719 12.6448 6.67096V9.02896C12.6448 9.38342 12.34 9.67396 12.0088 9.67396C11.6488 9.67396 11.3548 9.38159 11.3548 9.02896Z" fill="#5E6AD2"/>
<path d="M17.3611 6.39434L16.8403 6.59152C16.7497 6.62551 16.6392 6.65596 16.5181 6.65596C16.0522 6.65596 15.6691 6.26648 15.6691 5.79796C15.6691 5.41068 15.9182 5.12438 16.2356 4.99742L16.2409 4.99531L17.9891 4.33413C18.0581 4.31114 18.1557 4.28296 18.2911 4.28296C18.7505 4.28296 19.1401 4.66609 19.1401 5.12296V9.56596H19.6141C20.0826 9.56596 20.4811 9.95819 20.4811 10.424C20.4811 10.9016 20.0888 11.3 19.6141 11.3H16.5541C16.0793 11.3 15.6871 10.9016 15.6871 10.424C15.6871 9.95819 16.0855 9.56596 16.5541 9.56596H17.3611V6.39434Z" fill="#5E6AD2"/>
<path fill-rule="evenodd" clip-rule="evenodd" d="M20.3204 18.119C20.3204 19.5789 19.0412 20.417 17.8964 20.417C16.7516 20.417 15.4724 19.5789 15.4724 18.119V15.581C15.4724 14.121 16.7516 13.283 17.8964 13.283C19.0412 13.283 20.3204 14.121 20.3204 15.581V18.119ZM17.2514 18.029V15.671C17.2514 15.2808 17.5286 15.026 17.9054 15.026C18.2603 15.026 18.5414 15.2772 18.5414 15.671V18.029C18.5414 18.3834 18.2365 18.674 17.9054 18.674C17.5453 18.674 17.2514 18.3816 17.2514 18.029Z" fill="#5E6AD2"/>
</svg>
